<svg width="14" height="16" viewBox="0 0 14 16" fill="none" xmlns="http://www.w3.org/2000/svg">
<path fill-rule="evenodd" clip-rule="evenodd" d="M12.9077 13.5055C12.9077 14.1055 12.4077 14.6055 11.8077 14.6055H3.00771C2.40771 14.6055 1.90771 14.1055 1.90771 13.5055V5.60547C1.90771 5.10547 2.40771 4.60547 3.00771 4.60547H11.9077C12.5077 4.60547 13.0077 5.10547 13.0077 5.70547V13.5055H12.9077ZM7.40771 1.60547C8.60771 1.60547 9.50772 2.50547 9.70772 3.60547H5.10771C5.30771 2.50547 6.20771 1.60547 7.40771 1.60547ZM11.8077 3.60547H10.7077C10.5077 1.90547 9.10771 0.605469 7.40771 0.605469C5.70771 0.605469 4.30771 1.90547 4.10771 3.60547H3.00771C1.80771 3.60547 0.907715 4.50547 0.907715 5.70547V13.6055C0.907715 14.7055 1.80771 15.6055 3.00771 15.6055H11.9077C13.0077 15.6055 14.0077 14.7055 14.0077 13.5055V5.60547C13.9077 4.50547 13.0077 3.60547 11.8077 3.60547Z" fill="black"/>
</svg>
