<svg width="15" height="15" viewBox="0 0 15 15" fill="none" xmlns="http://www.w3.org/2000/svg">
<path d="M14.0524 13.3233L10.5524 9.8233C11.4341 8.74347 11.8673 7.36618 11.7623 5.97607C11.6574 4.58595 11.0224 3.28928 9.98863 2.35404C8.95483 1.41879 7.60124 0.916469 6.20759 0.950877C4.81395 0.985284 3.48679 1.5538 2.5004 2.53892C1.51402 3.52404 0.943797 4.85046 0.907597 6.24406C0.871396 7.63766 1.37198 8.9919 2.30589 10.0269C3.23981 11.0619 4.53566 11.6986 5.92564 11.8053C7.31561 11.912 8.69346 11.4806 9.77443 10.6003L13.2744 14.1003C13.3255 14.1514 13.3862 14.1919 13.4529 14.2196C13.5196 14.2472 13.5912 14.2614 13.6634 14.2614C13.7357 14.2614 13.8072 14.2472 13.874 14.2196C13.9407 14.1919 14.0013 14.1514 14.0524 14.1003C14.1035 14.0492 14.144 13.9886 14.1717 13.9218C14.1993 13.8551 14.2136 13.7835 14.2136 13.7113C14.2136 13.6391 14.1993 13.5675 14.1717 13.5008C14.144 13.434 14.1035 13.3734 14.0524 13.3223V13.3233ZM2.03143 6.3983C2.03162 5.54413 2.2851 4.70919 2.7598 3.99907C3.23449 3.28894 3.9091 2.73552 4.69831 2.40878C5.48752 2.08204 6.3559 1.99665 7.19363 2.16341C8.03137 2.33018 8.80085 2.7416 9.40477 3.34566C10.0087 3.94973 10.4199 4.7193 10.5865 5.55708C10.7531 6.39485 10.6675 7.26321 10.3406 8.05234C10.0136 8.84148 9.46006 9.51596 8.74983 9.99049C8.0396 10.465 7.2046 10.7183 6.35043 10.7183C5.20511 10.7172 4.10702 10.2617 3.29725 9.45177C2.48748 8.64182 2.03222 7.54362 2.03143 6.3983V6.3983Z" fill="black"/>
</svg>
